<svg xmlns="http://www.w3.org/2000/svg" viewBox="0 0 360 260">
  <defs><pattern id="grid" width="18" height="18" patternUnits="userSpaceOnUse"><path d="M18 0H0V18" fill="none" stroke="#79a489" stroke-opacity=".14"/></pattern></defs>
  <rect width="360" height="260" rx="16" fill="#06150f"/><rect x="8" y="8" width="344" height="244" rx="11" fill="url(#grid)" stroke="#f0b323" stroke-opacity=".35"/>
  <g fill="none" stroke="#f6f1dd" stroke-width="2">
    <path d="M42 62h188v137H42z"/><path d="M58 78h68v48H58zm83 0h72v48h-72zM58 142h155v40H58z"/>
    <circle cx="77" cy="102" r="10"/><circle cx="106" cy="102" r="10"/><path d="M153 92h47m-47 12h47m-47 12h31M72 154h127m-127 15h90"/>
    <path d="M230 84h32v92h-32m32-72h28m-28 36h28"/><circle cx="305" cy="104" r="12"/><circle cx="305" cy="140" r="12"/>
    <path d="M42 52v-15m188 15v-15M35 62H22m13 137H22" stroke="#f0b323"/>
  </g>
  <g fill="#f0b323" font-family="monospace" font-size="9" letter-spacing="1"><text x="18" y="24">PL-01 · SCIENCE BAY</text><text x="58" y="139">SENSOR ARRAY</text><text x="58" y="195">FLIGHT COMPUTER / STORAGE</text><text x="246" y="73">POWER BUS</text><text x="282" y="91">RADIO</text><text x="282" y="162">GPS</text><text x="18" y="232">NOTIONAL PAYLOAD ELECTRONICS ARCHITECTURE</text></g>
</svg>
